<svg width="21" height="20" viewBox="0 0 21 20" fill="none" xmlns="http://www.w3.org/2000/svg">
<path d="M17.3905 19.7312L13.4767 15.8561C13.3001 15.6812 13.2012 15.4434 13.2 15.1933L13.1968 14.5566C11.8235 15.6417 10.0925 16.2911 8.20599 16.3006C3.7182 16.3232 0.063559 12.7046 0.0409423 8.21607C0.0183256 3.72751 3.63632 0.0722537 8.1241 0.0496408C12.6119 0.027028 16.2665 3.64564 16.2891 8.1342C16.2987 10.021 15.6668 11.7587 14.5958 13.1432L15.2324 13.14C15.4824 13.1387 15.7212 13.2352 15.8978 13.4101L19.8115 17.2852C20.1805 17.6506 20.1835 18.2443 19.8182 18.6095L18.7184 19.7206C18.3531 20.0897 17.7594 20.0927 17.3905 19.7312ZM13.1645 8.14994C13.1506 5.38806 10.9052 3.1609 8.13985 3.17483C5.37844 3.18874 3.15166 5.43453 3.1656 8.20032C3.17951 10.9622 5.42492 13.1894 8.19024 13.1754C10.9517 13.1615 13.1784 10.9157 13.1645 8.14994Z" fill="white"/>
</svg>
